<svg width="73" height="73" viewBox="0 0 73 73" fill="none" xmlns="http://www.w3.org/2000/svg">
<path d="M41.0622 66.5768C39.5739 66.8007 38.0504 66.9167 36.4997 66.9167C25.8811 66.9167 16.5335 61.4755 11.0928 53.2292" stroke="white" stroke-width="5.07826" stroke-linecap="round" stroke-linejoin="round"/>
<path d="M19.7708 53.2292H10.6458V62.3542" stroke="white" stroke-width="5.07826" stroke-linecap="round" stroke-linejoin="round"/>
<path d="M66.5768 31.9375C66.8007 33.4258 66.9167 34.9494 66.9167 36.5C66.9167 47.1186 61.4755 56.4663 53.2292 61.907" stroke="white" stroke-width="5.07826" stroke-linecap="round" stroke-linejoin="round"/>
<path d="M62.3542 62.3542H53.2292V53.2292" stroke="white" stroke-width="5.07826" stroke-linecap="round" stroke-linejoin="round"/>
<path d="M31.9375 6.42316C33.4258 6.19929 34.9494 6.08325 36.5 6.08325C47.1186 6.08325 56.4663 11.5245 61.907 19.7708" stroke="white" stroke-width="5.07826" stroke-linecap="round" stroke-linejoin="round"/>
<path d="M53.2292 19.7708H62.3542V10.6458" stroke="white" stroke-width="5.07826" stroke-linecap="round" stroke-linejoin="round"/>
<path d="M19.7708 11.093C11.5245 16.5337 6.08325 25.8814 6.08325 36.5C6.08325 38.0506 6.19929 39.5742 6.42316 41.0625" stroke="white" stroke-width="5.07826" stroke-linecap="round" stroke-linejoin="round"/>
<path d="M10.6458 10.6458H19.7708V19.7708" stroke="white" stroke-width="5.07826" stroke-linecap="round" stroke-linejoin="round"/>
</svg>
