<svg width="275" height="275" viewBox="0 0 275 275" fill="none" xmlns="http://www.w3.org/2000/svg">
<g clip-path="url(#clip0_376_6)">
<path d="M237.5 18.75C237.5 8.44 245.94 0 256.2 0C266.46 0 275 8.44 275 18.75C275 29.06 266.56 37.5 256.2 37.5C245.84 37.5 237.5 29.06 237.5 18.75ZM272.4 18.75C272.4 9.8 265.14 2.49 256.25 2.49C247.36 2.49 240.04 9.8 240.04 18.75C240.04 27.7 247.35 35.01 256.25 35.01C265.15 35.01 272.4 27.7 272.4 18.75ZM246.07 18.65C246.07 12.67 250.57 8.12 256.4 8.12C261.05 8.12 265.14 11.09 265.86 15.28H262.54C261.82 12.72 259.32 10.99 256.41 10.99C252.32 10.99 249.15 14.36 249.15 18.66C249.15 22.96 252.32 26.43 256.41 26.43C259.38 26.43 261.93 24.59 262.6 21.88H265.92C265.1 26.28 261.17 29.29 256.41 29.29C250.58 29.29 246.08 24.69 246.08 18.66L246.07 18.65Z" fill="white"/>
<path d="M187.5 275C235.82 275 275 235.82 275 187.5C275 139.18 235.82 100 187.5 100H100V175H187.5C194.4 175 200 180.6 200 187.5C200 194.4 194.4 200 187.5 200H87.5C80.6 200 75 194.4 75 187.5V87.5C75 80.6 80.6 75 87.5 75H212.5V0H87.5C39.18 0 0 39.18 0 87.5V187.5C0 235.82 39.18 275 87.5 275H187.5Z" fill="white"/>
</g>
<defs>
<clipPath id="clip0_376_6">
<rect width="275" height="275" fill="white"/>
</clipPath>
</defs>
</svg>
