<svg width="1100" height="300" viewBox="0 0 1100 300" fill="none" xmlns="http://www.w3.org/2000/svg">
<path d="M436.94 59.67V67.49C436.45 100.08 411.52 124.85 378.77 124.85C346.02 124.85 319.46 99.76 319.46 66.68C319.46 33.6 344.88 8.51001 378.77 8.51001C405.98 8.51001 428.47 24.8 434.34 47.62H409.25C403.71 37.19 392.47 30.18 378.78 30.18C358.09 30.18 342.44 45.82 342.44 66.68C342.44 87.54 358.08 103.18 378.78 103.18C394.91 103.18 408.11 93.89 412.51 80.04H380.08V59.67H436.95H436.94Z" fill="white"/>
<path d="M532.27 88.6701H466.28C469.05 99.2601 477.52 106.11 488.6 106.11C497.72 106.11 505.38 101.87 508.64 96.1701H531.29C525.26 113.12 508.8 124.85 488.27 124.85C462.85 124.85 443.62 106.11 443.62 81.3401C443.62 56.5701 462.85 37.8301 488.27 37.8301C513.69 37.8301 532.92 56.5701 532.92 81.5001C532.92 83.6201 532.76 86.7101 532.27 88.6701ZM466.6 73.1901H510.11C507.34 63.0901 498.7 56.4101 488.28 56.4101C477.86 56.4101 469.38 63.0901 466.61 73.1901H466.6Z" fill="white"/>
<path d="M623.07 70.09V122.88H601.89V76.93C601.89 65.69 594.72 58.35 583.8 58.35C572.07 58.35 564.25 65.85 564.25 77.25V122.88H543.07V39.79H564.25V50.06C570.6 42.08 579.73 37.84 590.65 37.84C610.2 37.84 623.08 50.55 623.08 70.1L623.07 70.09Z" fill="white"/>
<path d="M721.59 88.6701H655.6C658.37 99.2601 666.84 106.11 677.92 106.11C687.04 106.11 694.7 101.87 697.96 96.1701H720.61C714.58 113.12 698.12 124.85 677.59 124.85C652.17 124.85 632.94 106.11 632.94 81.3401C632.94 56.5701 652.17 37.8301 677.59 37.8301C703.01 37.8301 722.24 56.5701 722.24 81.5001C722.24 83.6201 722.08 86.7101 721.59 88.6701ZM655.92 73.1901H699.43C696.66 63.0901 688.02 56.4101 677.6 56.4101C667.18 56.4101 658.7 63.0901 655.93 73.1901H655.92Z" fill="white"/>
<path d="M777.59 38.48V60.31C761.95 60.31 753.31 69.27 753.31 83.29V122.89H732.13V39.79H753.31V52.01C759.34 43.54 767.81 38.49 777.59 38.49V38.48Z" fill="white"/>
<path d="M868.61 39.7901V122.89H847.43V111.97C840.91 119.95 831.62 124.84 820.38 124.84C797.24 124.84 779.81 106.1 779.81 81.3301C779.81 56.5601 797.24 37.8201 820.38 37.8201C831.62 37.8201 840.91 42.7101 847.43 50.6901V39.7701H868.61V39.7901ZM847.43 81.3401C847.43 68.3001 837.65 58.3601 824.45 58.3601C811.25 58.3601 801.64 68.3001 801.64 81.3401C801.64 94.3801 811.42 104.32 824.45 104.32C837.48 104.32 847.43 94.3801 847.43 81.3401Z" fill="white"/>
<path d="M884.74 5.57001H905.92V122.89H884.74V5.57001Z" fill="white"/>
<path d="M403.38 236.2C403.38 253.96 389.86 266.67 371.77 266.67H325V154.24H367.53C384.31 154.24 397.35 166.3 397.35 182.92C397.35 193.35 391.97 202.64 384.48 206.87C395.56 210.62 403.38 222.68 403.38 236.2ZM346.84 174.44V199.21H361.99C368.67 199.21 374.21 193.83 374.21 186.83C374.21 179.83 369 174.45 361.99 174.45H346.84V174.44ZM380.24 232.29C380.24 224.47 374.21 218.28 366.23 218.28H346.84V246.47H366.23C374.21 246.47 380.24 240.28 380.24 232.29Z" fill="white"/>
<path d="M410.06 158.14C410.06 150.64 415.93 144.94 423.42 144.94C430.91 144.94 436.78 150.64 436.78 158.14C436.78 165.64 430.91 171.34 423.42 171.34C415.93 171.34 410.06 165.64 410.06 158.14Z" fill="white"/>
<path d="M434.01 183.56H412.83V266.66H434.01V183.56Z" fill="white"/>
<path d="M443.89 225.12C443.89 200.35 463.12 181.61 488.54 181.61C513.96 181.61 533.19 200.35 533.19 225.12C533.19 249.89 513.96 268.63 488.54 268.63C463.12 268.63 443.89 249.89 443.89 225.12ZM511.35 225.12C511.35 212.08 501.74 202.14 488.54 202.14C475.34 202.14 465.73 212.08 465.73 225.12C465.73 238.16 475.51 248.1 488.54 248.1C501.57 248.1 511.35 238.16 511.35 225.12Z" fill="white"/>
<path d="M543.06 149.34H564.24V266.66H543.06V149.34Z" fill="white"/>
<path d="M574.13 225.12C574.13 200.35 593.36 181.61 618.78 181.61C644.2 181.61 663.43 200.35 663.43 225.12C663.43 249.89 644.2 268.63 618.78 268.63C593.36 268.63 574.13 249.89 574.13 225.12ZM641.59 225.12C641.59 212.08 631.98 202.14 618.78 202.14C605.58 202.14 595.97 212.08 595.97 225.12C595.97 238.16 605.75 248.1 618.78 248.1C631.81 248.1 641.59 238.16 641.59 225.12Z" fill="white"/>
<path d="M759.24 183.56V257.7C759.24 282.96 742.29 299.58 716.55 299.58C694.88 299.58 679.4 287.68 674.67 268.62H696.51C699.28 275.63 706.94 280.19 716.55 280.19C729.59 280.19 738.06 271.23 738.06 257.54V253.79C731.54 261.45 722.25 266.17 711.17 266.17C688.03 266.17 670.6 247.92 670.6 223.8C670.6 199.68 688.04 181.6 711.17 181.6C722.25 181.6 731.54 186.33 738.06 193.98V183.55H759.24V183.56ZM738.06 223.81C738.06 210.77 728.45 200.83 715.25 200.83C702.05 200.83 692.44 210.77 692.44 223.81C692.44 236.85 702.22 246.95 715.25 246.95C728.28 246.95 738.06 237.01 738.06 223.81Z" fill="white"/>
<path d="M785.96 171.34C793.339 171.34 799.32 165.43 799.32 158.14C799.32 150.85 793.339 144.94 785.96 144.94C778.581 144.94 772.6 150.85 772.6 158.14C772.6 165.43 778.581 171.34 785.96 171.34Z" fill="white"/>
<path d="M796.55 183.56H775.37V266.66H796.55V183.56Z" fill="white"/>
<path d="M806.43 225.12C806.43 200.35 825.66 181.61 851.08 181.61C874.22 181.61 892.31 197.25 895.24 218.76H873.24C870.63 208.98 862 202.14 851.08 202.14C838.04 202.14 828.27 212.08 828.27 225.12C828.27 238.16 838.05 248.1 851.08 248.1C862 248.1 870.63 241.26 873.24 231.48H895.24C892.31 252.99 874.22 268.63 851.08 268.63C825.66 268.63 806.43 249.89 806.43 225.12Z" fill="white"/>
<path d="M991.11 183.56V266.66H969.93V255.74C963.41 263.72 954.12 268.61 942.88 268.61C919.74 268.61 902.31 249.87 902.31 225.1C902.31 200.33 919.75 181.59 942.88 181.59C954.12 181.59 963.41 186.48 969.93 194.46V183.54H991.11V183.56ZM969.93 225.11C969.93 212.07 960.15 202.13 946.95 202.13C933.75 202.13 924.14 212.07 924.14 225.11C924.14 238.15 933.92 248.09 946.95 248.09C959.98 248.09 969.93 238.15 969.93 225.11Z" fill="white"/>
<path d="M1007.24 149.34H1028.42V266.66H1007.24V149.34Z" fill="white"/>
<path d="M1099.14 182.42C1099.14 199.53 1086.27 212.4 1069.16 212.4C1052.05 212.4 1039.01 199.53 1039.01 182.42C1039.01 165.31 1051.88 152.27 1069.16 152.27C1086.44 152.27 1099.14 165.14 1099.14 182.42ZM1090.99 182.42C1090.99 169.55 1081.54 159.93 1069.16 159.93C1056.78 159.93 1047 169.54 1047 182.42C1047 195.3 1056.45 204.74 1069.16 204.74C1081.87 204.74 1090.99 195.13 1090.99 182.42ZM1075.35 185.52L1081.87 196.44H1073.56L1067.86 186.5H1067.21V196.44H1059.88V165.97H1070.63C1076.5 165.97 1081.06 170.37 1081.06 176.24C1081.06 180.48 1078.78 183.9 1075.36 185.53L1075.35 185.52ZM1067.2 179.98H1070.13C1072.25 179.98 1073.72 178.35 1073.72 176.23C1073.72 174.11 1072.25 172.65 1070.13 172.65H1067.2V179.98Z" fill="white"/>
<path d="M237.5 18.75C237.5 8.44 245.94 0 256.2 0C266.46 0 275 8.44 275 18.75C275 29.06 266.56 37.5 256.2 37.5C245.84 37.5 237.5 29.06 237.5 18.75ZM272.4 18.75C272.4 9.8 265.14 2.49 256.25 2.49C247.36 2.49 240.04 9.8 240.04 18.75C240.04 27.7 247.35 35.01 256.25 35.01C265.15 35.01 272.4 27.7 272.4 18.75ZM246.07 18.65C246.07 12.67 250.57 8.12 256.4 8.12C261.05 8.12 265.14 11.09 265.86 15.28H262.54C261.82 12.72 259.32 10.99 256.41 10.99C252.32 10.99 249.15 14.36 249.15 18.66C249.15 22.96 252.32 26.43 256.41 26.43C259.38 26.43 261.93 24.59 262.6 21.88H265.92C265.1 26.28 261.17 29.29 256.41 29.29C250.58 29.29 246.08 24.69 246.08 18.66L246.07 18.65Z" fill="white"/>
<path d="M187.5 275C235.82 275 275 235.82 275 187.5C275 139.18 235.82 100 187.5 100H100V175H187.5C194.4 175 200 180.6 200 187.5C200 194.4 194.4 200 187.5 200H87.5C80.6 200 75 194.4 75 187.5V87.5C75 80.6 80.6 75 87.5 75H212.5V0H87.5C39.18 0 0 39.18 0 87.5V187.5C0 235.82 39.18 275 87.5 275H187.5Z" fill="white"/>
</svg>
