<svg width="800" height="295" viewBox="0 0 800 295" fill="none" xmlns="http://www.w3.org/2000/svg">
<path d="M117.48 54.1V61.92C116.99 94.51 92.06 119.28 59.31 119.28C26.56 119.28 0 94.18 0 61.11C0 28.04 25.42 2.92999 59.31 2.92999C86.52 2.92999 109.01 19.22 114.88 42.04H89.79C84.25 31.61 73.01 24.6 59.32 24.6C38.63 24.6 22.98 40.24 22.98 61.1C22.98 81.96 38.62 97.6 59.32 97.6C75.45 97.6 88.65 88.31 93.05 74.46H60.62V54.09H117.49L117.48 54.1Z" fill="white"/>
<path d="M212.81 83.1H146.82C149.59 93.69 158.06 100.54 169.14 100.54C178.26 100.54 185.92 96.3 189.18 90.6H211.83C205.8 107.55 189.34 119.28 168.81 119.28C143.39 119.28 124.16 100.54 124.16 75.77C124.16 51 143.39 32.26 168.81 32.26C194.23 32.26 213.46 51 213.46 75.93C213.46 78.05 213.3 81.14 212.81 83.1ZM147.14 67.62H190.65C187.88 57.52 179.24 50.84 168.82 50.84C158.4 50.84 149.92 57.52 147.15 67.62H147.14Z" fill="white"/>
<path d="M303.61 64.53V117.32H282.43V71.37C282.43 60.13 275.26 52.79 264.34 52.79C252.61 52.79 244.79 60.29 244.79 71.69V117.32H223.61V34.22H244.79V44.49C251.14 36.51 260.27 32.27 271.19 32.27C290.74 32.27 303.62 44.98 303.62 64.53H303.61Z" fill="white"/>
<path d="M402.13 83.1H336.14C338.91 93.69 347.38 100.54 358.46 100.54C367.58 100.54 375.24 96.3 378.5 90.6H401.15C395.12 107.55 378.66 119.28 358.13 119.28C332.71 119.28 313.48 100.54 313.48 75.77C313.48 51 332.71 32.26 358.13 32.26C383.55 32.26 402.78 51 402.78 75.93C402.78 78.05 402.62 81.14 402.13 83.1ZM336.46 67.62H379.97C377.2 57.52 368.56 50.84 358.14 50.84C347.72 50.84 339.24 57.52 336.47 67.62H336.46Z" fill="white"/>
<path d="M458.13 32.92V54.75C442.49 54.75 433.85 63.71 433.85 77.73V117.33H412.67V34.22H433.85V46.44C439.88 37.97 448.35 32.92 458.13 32.92Z" fill="white"/>
<path d="M549.15 34.22V117.32H527.97V106.4C521.45 114.38 512.16 119.27 500.92 119.27C477.78 119.27 460.35 100.53 460.35 75.76C460.35 50.99 477.78 32.25 500.92 32.25C512.16 32.25 521.45 37.14 527.97 45.12V34.2H549.15V34.22ZM527.97 75.77C527.97 62.73 518.19 52.79 504.99 52.79C491.79 52.79 482.18 62.73 482.18 75.77C482.18 88.81 491.96 98.75 504.99 98.75C518.02 98.75 527.97 88.81 527.97 75.77Z" fill="white"/>
<path d="M565.28 0H586.46V117.32H565.28V0Z" fill="white"/>
<path d="M83.92 230.63C83.92 248.39 70.4 261.1 52.31 261.1H5.54004V148.67H48.07C64.85 148.67 77.89 160.73 77.89 177.35C77.89 187.78 72.51 197.07 65.02 201.3C76.1 205.05 83.92 217.11 83.92 230.63ZM27.38 168.87V193.64H42.53C49.21 193.64 54.75 188.26 54.75 181.26C54.75 174.26 49.54 168.88 42.53 168.88H27.38V168.87ZM60.78 226.72C60.78 218.9 54.75 212.71 46.77 212.71H27.38V240.9H46.77C54.75 240.9 60.78 234.71 60.78 226.72Z" fill="white"/>
<path d="M90.6 152.58C90.6 145.08 96.47 139.38 103.96 139.38C111.45 139.38 117.32 145.08 117.32 152.58C117.32 160.08 111.45 165.78 103.96 165.78C96.47 165.78 90.6 160.08 90.6 152.58Z" fill="white"/>
<path d="M114.55 178H93.37V261.1H114.55V178Z" fill="white"/>
<path d="M124.43 219.55C124.43 194.78 143.66 176.04 169.08 176.04C194.5 176.04 213.73 194.78 213.73 219.55C213.73 244.32 194.5 263.06 169.08 263.06C143.66 263.06 124.43 244.32 124.43 219.55ZM191.89 219.55C191.89 206.51 182.28 196.57 169.08 196.57C155.88 196.57 146.27 206.51 146.27 219.55C146.27 232.59 156.05 242.53 169.08 242.53C182.11 242.53 191.89 232.59 191.89 219.55Z" fill="white"/>
<path d="M223.6 143.78H244.78V261.1H223.6V143.78Z" fill="white"/>
<path d="M254.67 219.55C254.67 194.78 273.9 176.04 299.32 176.04C324.74 176.04 343.97 194.78 343.97 219.55C343.97 244.32 324.74 263.06 299.32 263.06C273.9 263.06 254.67 244.32 254.67 219.55ZM322.13 219.55C322.13 206.51 312.52 196.57 299.32 196.57C286.12 196.57 276.51 206.51 276.51 219.55C276.51 232.59 286.29 242.53 299.32 242.53C312.35 242.53 322.13 232.59 322.13 219.55Z" fill="white"/>
<path d="M439.78 178V252.14C439.78 277.4 422.83 294.02 397.09 294.02C375.42 294.02 359.94 282.12 355.21 263.06H377.05C379.82 270.07 387.48 274.63 397.09 274.63C410.13 274.63 418.6 265.67 418.6 251.98V248.23C412.08 255.89 402.79 260.61 391.71 260.61C368.57 260.61 351.14 242.36 351.14 218.24C351.14 194.12 368.58 176.04 391.71 176.04C402.79 176.04 412.08 180.77 418.6 188.42V177.99H439.78V178ZM418.6 218.25C418.6 205.21 408.99 195.27 395.79 195.27C382.59 195.27 372.98 205.21 372.98 218.25C372.98 231.29 382.76 241.39 395.79 241.39C408.82 241.39 418.6 231.45 418.6 218.25Z" fill="white"/>
<path d="M466.5 165.78C473.879 165.78 479.86 159.87 479.86 152.58C479.86 145.29 473.879 139.38 466.5 139.38C459.121 139.38 453.14 145.29 453.14 152.58C453.14 159.87 459.121 165.78 466.5 165.78Z" fill="white"/>
<path d="M477.09 178H455.91V261.1H477.09V178Z" fill="white"/>
<path d="M486.97 219.55C486.97 194.78 506.2 176.04 531.62 176.04C554.76 176.04 572.85 191.68 575.78 213.19H553.78C551.17 203.41 542.54 196.57 531.62 196.57C518.58 196.57 508.81 206.51 508.81 219.55C508.81 232.59 518.59 242.53 531.62 242.53C542.54 242.53 551.17 235.69 553.78 225.91H575.78C572.85 247.42 554.76 263.06 531.62 263.06C506.2 263.06 486.97 244.32 486.97 219.55Z" fill="white"/>
<path d="M671.65 178V261.1H650.47V250.18C643.95 258.16 634.66 263.05 623.42 263.05C600.28 263.05 582.85 244.31 582.85 219.54C582.85 194.77 600.29 176.03 623.42 176.03C634.66 176.03 643.95 180.92 650.47 188.9V177.98H671.65V178ZM650.47 219.55C650.47 206.51 640.69 196.57 627.49 196.57C614.29 196.57 604.68 206.51 604.68 219.55C604.68 232.59 614.46 242.53 627.49 242.53C640.52 242.53 650.47 232.59 650.47 219.55Z" fill="white"/>
<path d="M687.78 143.78H708.96V261.1H687.78V143.78Z" fill="white"/>
<path d="M779.68 176.86C779.68 193.97 766.81 206.84 749.7 206.84C732.59 206.84 719.55 193.97 719.55 176.86C719.55 159.75 732.42 146.71 749.7 146.71C766.98 146.71 779.68 159.58 779.68 176.86ZM771.53 176.86C771.53 163.99 762.08 154.37 749.7 154.37C737.32 154.37 727.54 163.98 727.54 176.86C727.54 189.74 736.99 199.18 749.7 199.18C762.41 199.18 771.53 189.57 771.53 176.86ZM755.89 179.96L762.41 190.88H754.1L748.4 180.94H747.75V190.88H740.42V160.41H751.17C757.04 160.41 761.6 164.81 761.6 170.68C761.6 174.92 759.32 178.34 755.9 179.97L755.89 179.96ZM747.74 174.42H750.67C752.79 174.42 754.26 172.79 754.26 170.67C754.26 168.55 752.79 167.09 750.67 167.09H747.74V174.42Z" fill="white"/>
</svg>
